<svg xmlns="http://www.w3.org/2000/svg" version="1.1" xmlns:xlink="http://www.w3.org/1999/xlink" xmlns:svgjs="http://svgjs.dev/svgjs" width="1440" height="560" preserveAspectRatio="none" viewBox="0 0 1440 560"><g mask="url(&quot;#SvgjsMask1009&quot;)" fill="none"><rect width="1440" height="560" x="0" y="0" fill="rgba(0, 66, 37, 1)"></rect><path d="M 0,70 C 57.6,98.8 172.8,224.8 288,214 C 403.2,203.2 460.8,29.2 576,16 C 691.2,2.8 748.8,142.2 864,148 C 979.2,153.8 1036.8,31.6 1152,45 C 1267.2,58.4 1382.4,181 1440,215L1440 560L0 560z" fill="rgba(255, 176, 0, 1)"></path><path d="M 0,391 C 96,404.8 288,456.8 480,460 C 672,463.2 768,397.8 960,407 C 1152,416.2 1344,486.2 1440,506L1440 560L0 560z" fill="rgba(255, 207, 157, 1)"></path></g><defs><mask id="SvgjsMask1009"><rect width="1440" height="560" fill="#ffffff"></rect></mask></defs></svg>