<svg xmlns="http://www.w3.org/2000/svg" version="1.1" xmlns:xlink="http://www.w3.org/1999/xlink" xmlns:svgjs="http://svgjs.dev/svgjs" width="1440" height="560" preserveAspectRatio="none" viewBox="0 0 1440 560"><g mask="url(&quot;#SvgjsMask1382&quot;)" fill="none"><g mask="url(&quot;#SvgjsMask1383&quot;)"><path d="M170 290L190 310M230 270L250 290L270 290M210 290L230 290L250 310L270 310L290 310L310 310L330 310M290 270L310 290L330 290L350 290L370 290M-10 290L10 290L30 290L50 290L70 290L90 290L110 290L130 290L150 290L170 290L190 290L210 290L230 270L250 270L270 270L290 270L310 270L330 270L350 270" stroke="rgba(0, 66, 37, 1)" stroke-width="3.33"></path><path d="M345 270 a5 5 0 1 0 10 0 a5 5 0 1 0 -10 0zM185 310 a5 5 0 1 0 10 0 a5 5 0 1 0 -10 0zM265 290 a5 5 0 1 0 10 0 a5 5 0 1 0 -10 0zM325 310 a5 5 0 1 0 10 0 a5 5 0 1 0 -10 0zM365 290 a5 5 0 1 0 10 0 a5 5 0 1 0 -10 0z" fill="rgba(0, 66, 37, 1)"></path><path d="M270 250L290 230M370 250L390 270L410 270M330 250L350 230L370 210L390 210M310 250L330 230L350 210M-10 270L10 270L30 270L50 270L70 270L90 270L110 270L130 270L150 270L170 270L190 270L210 270L230 250L250 250L270 250L290 250L310 250L330 250L350 250L370 250L390 250" stroke="rgba(255, 176, 0, 1)" stroke-width="3.33"></path><path d="M385 250 a5 5 0 1 0 10 0 a5 5 0 1 0 -10 0zM285 230 a5 5 0 1 0 10 0 a5 5 0 1 0 -10 0zM405 270 a5 5 0 1 0 10 0 a5 5 0 1 0 -10 0zM385 210 a5 5 0 1 0 10 0 a5 5 0 1 0 -10 0zM345 210 a5 5 0 1 0 10 0 a5 5 0 1 0 -10 0z" fill="rgba(255, 176, 0, 1)"></path><path d="M10 310L30 330L50 330L70 330L90 330M110 310L130 330M-10 310L10 310L30 310L50 310L70 310L90 310L110 310L130 310L150 330" stroke="rgba(255, 176, 0, 1)" stroke-width="3.33"></path><path d="M145 330 a5 5 0 1 0 10 0 a5 5 0 1 0 -10 0zM85 330 a5 5 0 1 0 10 0 a5 5 0 1 0 -10 0zM125 330 a5 5 0 1 0 10 0 a5 5 0 1 0 -10 0z" fill="rgba(255, 176, 0, 1)"></path><path d="M50 250L70 230L90 230M230 230L250 210L270 210M30 250L50 230L70 210L90 210M-10 250L10 250L30 250L50 250L70 250L90 250L110 250L130 250L150 250L170 250L190 250L210 250L230 230L250 230" stroke="rgba(0, 66, 37, 1)" stroke-width="3.33"></path><path d="M245 230 a5 5 0 1 0 10 0 a5 5 0 1 0 -10 0zM85 230 a5 5 0 1 0 10 0 a5 5 0 1 0 -10 0zM265 210 a5 5 0 1 0 10 0 a5 5 0 1 0 -10 0zM85 210 a5 5 0 1 0 10 0 a5 5 0 1 0 -10 0z" fill="rgba(0, 66, 37, 1)"></path><path d="M250 350L270 370L290 370M270 350L290 330L310 330L330 330M190 350L210 330L230 330M230 350L250 370M-10 350L10 350L30 350L50 350L70 350L90 350L110 350L130 350L150 350L170 350L190 350L210 350L230 350L250 350L270 350L290 350" stroke="rgba(255, 176, 0, 1)" stroke-width="3.33"></path><path d="M285 350 a5 5 0 1 0 10 0 a5 5 0 1 0 -10 0zM285 370 a5 5 0 1 0 10 0 a5 5 0 1 0 -10 0zM325 330 a5 5 0 1 0 10 0 a5 5 0 1 0 -10 0zM225 330 a5 5 0 1 0 10 0 a5 5 0 1 0 -10 0zM245 370 a5 5 0 1 0 10 0 a5 5 0 1 0 -10 0z" fill="rgba(255, 176, 0, 1)"></path><path d="M210 190L230 210M110 190L130 210L150 210L170 210M450 210L470 230M290 190L310 170L330 170L350 170L370 170L390 170L410 170M150 190L170 170M390 190L410 190L430 170L450 170L470 170M-10 210L10 210L30 190L50 190L70 190L90 190L110 190L130 190L150 190L170 190L190 190L210 190L230 190L250 190L270 190L290 190L310 190L330 190L350 190L370 190L390 190L410 210L430 210L450 210L470 210" stroke="rgba(255, 176, 0, 1)" stroke-width="3.33"></path><path d="M465 210 a5 5 0 1 0 10 0 a5 5 0 1 0 -10 0zM225 210 a5 5 0 1 0 10 0 a5 5 0 1 0 -10 0zM165 210 a5 5 0 1 0 10 0 a5 5 0 1 0 -10 0zM465 230 a5 5 0 1 0 10 0 a5 5 0 1 0 -10 0zM405 170 a5 5 0 1 0 10 0 a5 5 0 1 0 -10 0zM165 170 a5 5 0 1 0 10 0 a5 5 0 1 0 -10 0zM465 170 a5 5 0 1 0 10 0 a5 5 0 1 0 -10 0z" fill="rgba(255, 176, 0, 1)"></path><path d="M170 370L190 370L210 370L230 370M390 410L410 390L430 390L450 390L470 390M350 410L370 390L390 390L410 370L430 370L450 370M130 370L150 390L170 390M330 410L350 390M-10 370L10 370L30 370L50 370L70 370L90 370L110 370L130 370L150 370L170 370L190 390L210 390L230 390L250 390L270 390L290 390L310 390L330 410L350 410L370 410L390 410L410 410L430 410" stroke="rgba(255, 176, 0, 1)" stroke-width="3.33"></path><path d="M425 410 a5 5 0 1 0 10 0 a5 5 0 1 0 -10 0zM225 370 a5 5 0 1 0 10 0 a5 5 0 1 0 -10 0zM465 390 a5 5 0 1 0 10 0 a5 5 0 1 0 -10 0zM445 370 a5 5 0 1 0 10 0 a5 5 0 1 0 -10 0zM165 390 a5 5 0 1 0 10 0 a5 5 0 1 0 -10 0zM345 390 a5 5 0 1 0 10 0 a5 5 0 1 0 -10 0z" fill="rgba(255, 176, 0, 1)"></path><path d="M290 150L310 130L330 130L350 130L370 130L390 130M110 170L130 170L150 170M170 150L190 150L210 150M230 170L250 150L270 150L290 130M270 170L290 170M-10 190L10 190L30 170L50 170L70 170L90 170L110 170L130 150L150 150L170 150L190 170L210 170L230 170L250 170L270 170L290 150L310 150L330 150L350 150L370 150L390 150L410 150" stroke="rgba(0, 66, 37, 1)" stroke-width="3.33"></path><path d="M405 150 a5 5 0 1 0 10 0 a5 5 0 1 0 -10 0zM385 130 a5 5 0 1 0 10 0 a5 5 0 1 0 -10 0zM145 170 a5 5 0 1 0 10 0 a5 5 0 1 0 -10 0zM205 150 a5 5 0 1 0 10 0 a5 5 0 1 0 -10 0zM285 130 a5 5 0 1 0 10 0 a5 5 0 1 0 -10 0zM285 170 a5 5 0 1 0 10 0 a5 5 0 1 0 -10 0z" fill="rgba(0, 66, 37, 1)"></path><path d="M210 410L230 430L250 430M350 430L370 450L390 450L410 450L430 450M270 410L290 430L310 430L330 450L350 450M90 390L110 410L130 430M170 410L190 430L210 430L230 450L250 450M-10 390L10 390L30 390L50 390L70 390L90 390L110 390L130 410L150 410L170 410L190 410L210 410L230 410L250 410L270 410L290 410L310 410L330 430L350 430L370 430L390 430" stroke="rgba(0, 66, 37, 1)" stroke-width="3.33"></path><path d="M385 430 a5 5 0 1 0 10 0 a5 5 0 1 0 -10 0zM245 430 a5 5 0 1 0 10 0 a5 5 0 1 0 -10 0zM425 450 a5 5 0 1 0 10 0 a5 5 0 1 0 -10 0zM345 450 a5 5 0 1 0 10 0 a5 5 0 1 0 -10 0zM125 430 a5 5 0 1 0 10 0 a5 5 0 1 0 -10 0zM245 450 a5 5 0 1 0 10 0 a5 5 0 1 0 -10 0z" fill="rgba(0, 66, 37, 1)"></path><path d="M70 150L90 130L110 130L130 130L150 130M30 150L50 130L70 130L90 110M-10 170L10 170L30 150L50 150L70 150L90 150" stroke="rgba(0, 66, 37, 1)" stroke-width="3.33"></path><path d="M85 150 a5 5 0 1 0 10 0 a5 5 0 1 0 -10 0zM145 130 a5 5 0 1 0 10 0 a5 5 0 1 0 -10 0zM85 110 a5 5 0 1 0 10 0 a5 5 0 1 0 -10 0z" fill="rgba(0, 66, 37, 1)"></path><path d="M30 410L50 430L70 430L90 430M-10 410L10 410L30 410L50 410" stroke="rgba(255, 176, 0, 1)" stroke-width="3.33"></path><path d="M45 410 a5 5 0 1 0 10 0 a5 5 0 1 0 -10 0zM85 430 a5 5 0 1 0 10 0 a5 5 0 1 0 -10 0z" fill="rgba(255, 176, 0, 1)"></path></g></g><defs><mask id="SvgjsMask1382"><rect width="1440" height="560" fill="#ffffff"></rect></mask><mask id="SvgjsMask1383"><rect width="1440" height="560" fill="white"></rect><path d="M347.5 270 a2.5 2.5 0 1 0 5 0 a2.5 2.5 0 1 0 -5 0zM187.5 310 a2.5 2.5 0 1 0 5 0 a2.5 2.5 0 1 0 -5 0zM267.5 290 a2.5 2.5 0 1 0 5 0 a2.5 2.5 0 1 0 -5 0zM327.5 310 a2.5 2.5 0 1 0 5 0 a2.5 2.5 0 1 0 -5 0zM367.5 290 a2.5 2.5 0 1 0 5 0 a2.5 2.5 0 1 0 -5 0z" fill="black"></path><path d="M387.5 250 a2.5 2.5 0 1 0 5 0 a2.5 2.5 0 1 0 -5 0zM287.5 230 a2.5 2.5 0 1 0 5 0 a2.5 2.5 0 1 0 -5 0zM407.5 270 a2.5 2.5 0 1 0 5 0 a2.5 2.5 0 1 0 -5 0zM387.5 210 a2.5 2.5 0 1 0 5 0 a2.5 2.5 0 1 0 -5 0zM347.5 210 a2.5 2.5 0 1 0 5 0 a2.5 2.5 0 1 0 -5 0z" fill="black"></path><path d="M147.5 330 a2.5 2.5 0 1 0 5 0 a2.5 2.5 0 1 0 -5 0zM87.5 330 a2.5 2.5 0 1 0 5 0 a2.5 2.5 0 1 0 -5 0zM127.5 330 a2.5 2.5 0 1 0 5 0 a2.5 2.5 0 1 0 -5 0z" fill="black"></path><path d="M247.5 230 a2.5 2.5 0 1 0 5 0 a2.5 2.5 0 1 0 -5 0zM87.5 230 a2.5 2.5 0 1 0 5 0 a2.5 2.5 0 1 0 -5 0zM267.5 210 a2.5 2.5 0 1 0 5 0 a2.5 2.5 0 1 0 -5 0zM87.5 210 a2.5 2.5 0 1 0 5 0 a2.5 2.5 0 1 0 -5 0z" fill="black"></path><path d="M287.5 350 a2.5 2.5 0 1 0 5 0 a2.5 2.5 0 1 0 -5 0zM287.5 370 a2.5 2.5 0 1 0 5 0 a2.5 2.5 0 1 0 -5 0zM327.5 330 a2.5 2.5 0 1 0 5 0 a2.5 2.5 0 1 0 -5 0zM227.5 330 a2.5 2.5 0 1 0 5 0 a2.5 2.5 0 1 0 -5 0zM247.5 370 a2.5 2.5 0 1 0 5 0 a2.5 2.5 0 1 0 -5 0z" fill="black"></path><path d="M467.5 210 a2.5 2.5 0 1 0 5 0 a2.5 2.5 0 1 0 -5 0zM227.5 210 a2.5 2.5 0 1 0 5 0 a2.5 2.5 0 1 0 -5 0zM167.5 210 a2.5 2.5 0 1 0 5 0 a2.5 2.5 0 1 0 -5 0zM467.5 230 a2.5 2.5 0 1 0 5 0 a2.5 2.5 0 1 0 -5 0zM407.5 170 a2.5 2.5 0 1 0 5 0 a2.5 2.5 0 1 0 -5 0zM167.5 170 a2.5 2.5 0 1 0 5 0 a2.5 2.5 0 1 0 -5 0zM467.5 170 a2.5 2.5 0 1 0 5 0 a2.5 2.5 0 1 0 -5 0z" fill="black"></path><path d="M427.5 410 a2.5 2.5 0 1 0 5 0 a2.5 2.5 0 1 0 -5 0zM227.5 370 a2.5 2.5 0 1 0 5 0 a2.5 2.5 0 1 0 -5 0zM467.5 390 a2.5 2.5 0 1 0 5 0 a2.5 2.5 0 1 0 -5 0zM447.5 370 a2.5 2.5 0 1 0 5 0 a2.5 2.5 0 1 0 -5 0zM167.5 390 a2.5 2.5 0 1 0 5 0 a2.5 2.5 0 1 0 -5 0zM347.5 390 a2.5 2.5 0 1 0 5 0 a2.5 2.5 0 1 0 -5 0z" fill="black"></path><path d="M407.5 150 a2.5 2.5 0 1 0 5 0 a2.5 2.5 0 1 0 -5 0zM387.5 130 a2.5 2.5 0 1 0 5 0 a2.5 2.5 0 1 0 -5 0zM147.5 170 a2.5 2.5 0 1 0 5 0 a2.5 2.5 0 1 0 -5 0zM207.5 150 a2.5 2.5 0 1 0 5 0 a2.5 2.5 0 1 0 -5 0zM287.5 130 a2.5 2.5 0 1 0 5 0 a2.5 2.5 0 1 0 -5 0zM287.5 170 a2.5 2.5 0 1 0 5 0 a2.5 2.5 0 1 0 -5 0z" fill="black"></path><path d="M387.5 430 a2.5 2.5 0 1 0 5 0 a2.5 2.5 0 1 0 -5 0zM247.5 430 a2.5 2.5 0 1 0 5 0 a2.5 2.5 0 1 0 -5 0zM427.5 450 a2.5 2.5 0 1 0 5 0 a2.5 2.5 0 1 0 -5 0zM347.5 450 a2.5 2.5 0 1 0 5 0 a2.5 2.5 0 1 0 -5 0zM127.5 430 a2.5 2.5 0 1 0 5 0 a2.5 2.5 0 1 0 -5 0zM247.5 450 a2.5 2.5 0 1 0 5 0 a2.5 2.5 0 1 0 -5 0z" fill="black"></path><path d="M87.5 150 a2.5 2.5 0 1 0 5 0 a2.5 2.5 0 1 0 -5 0zM147.5 130 a2.5 2.5 0 1 0 5 0 a2.5 2.5 0 1 0 -5 0zM87.5 110 a2.5 2.5 0 1 0 5 0 a2.5 2.5 0 1 0 -5 0z" fill="black"></path><path d="M47.5 410 a2.5 2.5 0 1 0 5 0 a2.5 2.5 0 1 0 -5 0zM87.5 430 a2.5 2.5 0 1 0 5 0 a2.5 2.5 0 1 0 -5 0z" fill="black"></path></mask></defs></svg>