<svg xmlns="http://www.w3.org/2000/svg" version="1.1" xmlns:xlink="http://www.w3.org/1999/xlink" xmlns:svgjs="http://svgjs.dev/svgjs" width="1440" height="560" preserveAspectRatio="none" viewBox="0 0 1440 560"><g mask="url(&quot;#SvgjsMask1109&quot;)" fill="none"><path d="M601.82 477.7L740.39 557.7L740.39 717.7L601.82 797.7L463.25 717.7L463.25 557.7zM878.96 477.7L1017.53 557.7L1017.53 717.7L878.96 797.7L740.39 717.7L740.39 557.7z" stroke="rgba(0, 66, 37, 1)" stroke-width="2"></path><path d="M585.82 477.7 a16 16 0 1 0 32 0 a16 16 0 1 0 -32 0zM724.39 557.7 a16 16 0 1 0 32 0 a16 16 0 1 0 -32 0zM724.39 717.7 a16 16 0 1 0 32 0 a16 16 0 1 0 -32 0zM585.82 797.7 a16 16 0 1 0 32 0 a16 16 0 1 0 -32 0zM447.25 717.7 a16 16 0 1 0 32 0 a16 16 0 1 0 -32 0zM447.25 557.7 a16 16 0 1 0 32 0 a16 16 0 1 0 -32 0zM862.96 477.7 a16 16 0 1 0 32 0 a16 16 0 1 0 -32 0zM1001.53 557.7 a16 16 0 1 0 32 0 a16 16 0 1 0 -32 0zM1001.53 717.7 a16 16 0 1 0 32 0 a16 16 0 1 0 -32 0zM862.96 797.7 a16 16 0 1 0 32 0 a16 16 0 1 0 -32 0z" fill="rgba(0, 66, 37, 1)"></path><path d="M96.27 337.04L172.48 381.04L172.48 469.04L96.27 513.04L20.06 469.04L20.06 381.04zM172.48 205.04L248.7 249.04L248.7 337.04L172.48 381.04L96.27 337.04L96.27 249.04zM553.55 337.04L629.76 381.04L629.76 469.04L553.55 513.04L477.33 469.04L477.33 381.04zM782.18 205.04L858.4 249.04L858.4 337.04L782.18 381.04L705.97 337.04L705.97 249.04zM858.4 337.04L934.61 381.04L934.61 469.04L858.4 513.04L782.18 469.04L782.18 381.04zM934.61 -58.96L1010.82 -14.96L1010.82 73.04L934.61 117.04L858.4 73.04L858.4 -14.96zM934.61 205.04L1010.82 249.04L1010.82 337.04L934.61 381.04L858.4 337.04L858.4 249.04zM1010.82 337.04L1087.03 381.04L1087.03 469.04L1010.82 513.04L934.61 469.04L934.61 381.04zM1315.67 73.04L1391.88 117.04L1391.88 205.04L1315.67 249.04L1239.46 205.04L1239.46 117.04zM1391.88 -58.96L1468.1 -14.96L1468.1 73.04L1391.88 117.04L1315.67 73.04L1315.67 -14.96z" stroke="rgba(255, 176, 0, 1)" stroke-width="2"></path><path d="M87.47 337.04 a8.8 8.8 0 1 0 17.6 0 a8.8 8.8 0 1 0 -17.6 0zM163.68 381.04 a8.8 8.8 0 1 0 17.6 0 a8.8 8.8 0 1 0 -17.6 0zM163.68 469.04 a8.8 8.8 0 1 0 17.6 0 a8.8 8.8 0 1 0 -17.6 0zM87.47 513.04 a8.8 8.8 0 1 0 17.6 0 a8.8 8.8 0 1 0 -17.6 0zM11.26 469.04 a8.8 8.8 0 1 0 17.6 0 a8.8 8.8 0 1 0 -17.6 0zM11.26 381.04 a8.8 8.8 0 1 0 17.6 0 a8.8 8.8 0 1 0 -17.6 0zM163.68 205.04 a8.8 8.8 0 1 0 17.6 0 a8.8 8.8 0 1 0 -17.6 0zM239.9 249.04 a8.8 8.8 0 1 0 17.6 0 a8.8 8.8 0 1 0 -17.6 0zM239.9 337.04 a8.8 8.8 0 1 0 17.6 0 a8.8 8.8 0 1 0 -17.6 0zM87.47 249.04 a8.8 8.8 0 1 0 17.6 0 a8.8 8.8 0 1 0 -17.6 0zM544.75 337.04 a8.8 8.8 0 1 0 17.6 0 a8.8 8.8 0 1 0 -17.6 0zM620.96 381.04 a8.8 8.8 0 1 0 17.6 0 a8.8 8.8 0 1 0 -17.6 0zM620.96 469.04 a8.8 8.8 0 1 0 17.6 0 a8.8 8.8 0 1 0 -17.6 0zM544.75 513.04 a8.8 8.8 0 1 0 17.6 0 a8.8 8.8 0 1 0 -17.6 0zM468.53 469.04 a8.8 8.8 0 1 0 17.6 0 a8.8 8.8 0 1 0 -17.6 0zM468.53 381.04 a8.8 8.8 0 1 0 17.6 0 a8.8 8.8 0 1 0 -17.6 0zM773.38 205.04 a8.8 8.8 0 1 0 17.6 0 a8.8 8.8 0 1 0 -17.6 0zM849.6 249.04 a8.8 8.8 0 1 0 17.6 0 a8.8 8.8 0 1 0 -17.6 0zM849.6 337.04 a8.8 8.8 0 1 0 17.6 0 a8.8 8.8 0 1 0 -17.6 0zM773.38 381.04 a8.8 8.8 0 1 0 17.6 0 a8.8 8.8 0 1 0 -17.6 0zM697.17 337.04 a8.8 8.8 0 1 0 17.6 0 a8.8 8.8 0 1 0 -17.6 0zM697.17 249.04 a8.8 8.8 0 1 0 17.6 0 a8.8 8.8 0 1 0 -17.6 0zM925.81 381.04 a8.8 8.8 0 1 0 17.6 0 a8.8 8.8 0 1 0 -17.6 0zM925.81 469.04 a8.8 8.8 0 1 0 17.6 0 a8.8 8.8 0 1 0 -17.6 0zM849.6 513.04 a8.8 8.8 0 1 0 17.6 0 a8.8 8.8 0 1 0 -17.6 0zM773.38 469.04 a8.8 8.8 0 1 0 17.6 0 a8.8 8.8 0 1 0 -17.6 0zM925.81 -58.96 a8.8 8.8 0 1 0 17.6 0 a8.8 8.8 0 1 0 -17.6 0zM1002.02 -14.96 a8.8 8.8 0 1 0 17.6 0 a8.8 8.8 0 1 0 -17.6 0zM1002.02 73.04 a8.8 8.8 0 1 0 17.6 0 a8.8 8.8 0 1 0 -17.6 0zM925.81 117.04 a8.8 8.8 0 1 0 17.6 0 a8.8 8.8 0 1 0 -17.6 0zM849.6 73.04 a8.8 8.8 0 1 0 17.6 0 a8.8 8.8 0 1 0 -17.6 0zM849.6 -14.96 a8.8 8.8 0 1 0 17.6 0 a8.8 8.8 0 1 0 -17.6 0zM925.81 205.04 a8.8 8.8 0 1 0 17.6 0 a8.8 8.8 0 1 0 -17.6 0zM1002.02 249.04 a8.8 8.8 0 1 0 17.6 0 a8.8 8.8 0 1 0 -17.6 0zM1002.02 337.04 a8.8 8.8 0 1 0 17.6 0 a8.8 8.8 0 1 0 -17.6 0zM1078.23 381.04 a8.8 8.8 0 1 0 17.6 0 a8.8 8.8 0 1 0 -17.6 0zM1078.23 469.04 a8.8 8.8 0 1 0 17.6 0 a8.8 8.8 0 1 0 -17.6 0zM1002.02 513.04 a8.8 8.8 0 1 0 17.6 0 a8.8 8.8 0 1 0 -17.6 0zM1306.87 73.04 a8.8 8.8 0 1 0 17.6 0 a8.8 8.8 0 1 0 -17.6 0zM1383.08 117.04 a8.8 8.8 0 1 0 17.6 0 a8.8 8.8 0 1 0 -17.6 0zM1383.08 205.04 a8.8 8.8 0 1 0 17.6 0 a8.8 8.8 0 1 0 -17.6 0zM1306.87 249.04 a8.8 8.8 0 1 0 17.6 0 a8.8 8.8 0 1 0 -17.6 0zM1230.66 205.04 a8.8 8.8 0 1 0 17.6 0 a8.8 8.8 0 1 0 -17.6 0zM1230.66 117.04 a8.8 8.8 0 1 0 17.6 0 a8.8 8.8 0 1 0 -17.6 0zM1383.08 -58.96 a8.8 8.8 0 1 0 17.6 0 a8.8 8.8 0 1 0 -17.6 0zM1459.3 -14.96 a8.8 8.8 0 1 0 17.6 0 a8.8 8.8 0 1 0 -17.6 0zM1459.3 73.04 a8.8 8.8 0 1 0 17.6 0 a8.8 8.8 0 1 0 -17.6 0zM1306.87 -14.96 a8.8 8.8 0 1 0 17.6 0 a8.8 8.8 0 1 0 -17.6 0z" fill="rgba(255, 176, 0, 1)"></path></g><defs><mask id="SvgjsMask1109"><rect width="1440" height="560" fill="#ffffff"></rect></mask></defs></svg>