<svg xmlns="http://www.w3.org/2000/svg" version="1.1" xmlns:xlink="http://www.w3.org/1999/xlink" xmlns:svgjs="http://svgjs.dev/svgjs" width="1440" height="560" preserveAspectRatio="none" viewBox="0 0 1440 560"><g mask="url(&quot;#SvgjsMask1030&quot;)" fill="none"><path d="M26.89 152.89L91.84 190.39L91.84 265.39L26.89 302.89L-38.06 265.39L-38.06 190.39zM351.66 265.39L416.61 302.89L416.61 377.89L351.66 415.39L286.7 377.89L286.7 302.89zM481.57 40.39L546.52 77.89L546.52 152.89L481.57 190.39L416.61 152.89L416.61 77.89zM416.61 152.89L481.57 190.39L481.57 265.39L416.61 302.89L351.66 265.39L351.66 190.39zM741.38 40.39L806.34 77.89L806.34 152.89L741.38 190.39L676.43 152.89L676.43 77.89zM1001.2 40.39L1066.15 77.89L1066.15 152.89L1001.2 190.39L936.24 152.89L936.24 77.89zM1001.2 490.39L1066.15 527.89L1066.15 602.89L1001.2 640.39L936.24 602.89L936.24 527.89zM1131.1 265.39L1196.06 302.89L1196.06 377.89L1131.1 415.39L1066.15 377.89L1066.15 302.89zM1196.06 152.89L1261.01 190.39L1261.01 265.39L1196.06 302.89L1131.1 265.39L1131.1 190.39zM1261.01 265.39L1325.96 302.89L1325.96 377.89L1261.01 415.39L1196.06 377.89L1196.06 302.89zM1520.83 265.39L1585.78 302.89L1585.78 377.89L1520.83 415.39L1455.87 377.89L1455.87 302.89z" stroke="rgba(0, 66, 37, 1)" stroke-width="2"></path><path d="M19.39 152.89 a7.5 7.5 0 1 0 15 0 a7.5 7.5 0 1 0 -15 0zM84.34 190.39 a7.5 7.5 0 1 0 15 0 a7.5 7.5 0 1 0 -15 0zM84.34 265.39 a7.5 7.5 0 1 0 15 0 a7.5 7.5 0 1 0 -15 0zM19.39 302.89 a7.5 7.5 0 1 0 15 0 a7.5 7.5 0 1 0 -15 0zM-45.56 265.39 a7.5 7.5 0 1 0 15 0 a7.5 7.5 0 1 0 -15 0zM-45.56 190.39 a7.5 7.5 0 1 0 15 0 a7.5 7.5 0 1 0 -15 0zM344.16 265.39 a7.5 7.5 0 1 0 15 0 a7.5 7.5 0 1 0 -15 0zM409.11 302.89 a7.5 7.5 0 1 0 15 0 a7.5 7.5 0 1 0 -15 0zM409.11 377.89 a7.5 7.5 0 1 0 15 0 a7.5 7.5 0 1 0 -15 0zM344.16 415.39 a7.5 7.5 0 1 0 15 0 a7.5 7.5 0 1 0 -15 0zM279.2 377.89 a7.5 7.5 0 1 0 15 0 a7.5 7.5 0 1 0 -15 0zM279.2 302.89 a7.5 7.5 0 1 0 15 0 a7.5 7.5 0 1 0 -15 0zM474.07 40.39 a7.5 7.5 0 1 0 15 0 a7.5 7.5 0 1 0 -15 0zM539.02 77.89 a7.5 7.5 0 1 0 15 0 a7.5 7.5 0 1 0 -15 0zM539.02 152.89 a7.5 7.5 0 1 0 15 0 a7.5 7.5 0 1 0 -15 0zM474.07 190.39 a7.5 7.5 0 1 0 15 0 a7.5 7.5 0 1 0 -15 0zM409.11 152.89 a7.5 7.5 0 1 0 15 0 a7.5 7.5 0 1 0 -15 0zM409.11 77.89 a7.5 7.5 0 1 0 15 0 a7.5 7.5 0 1 0 -15 0zM474.07 265.39 a7.5 7.5 0 1 0 15 0 a7.5 7.5 0 1 0 -15 0zM344.16 190.39 a7.5 7.5 0 1 0 15 0 a7.5 7.5 0 1 0 -15 0zM733.88 40.39 a7.5 7.5 0 1 0 15 0 a7.5 7.5 0 1 0 -15 0zM798.84 77.89 a7.5 7.5 0 1 0 15 0 a7.5 7.5 0 1 0 -15 0zM798.84 152.89 a7.5 7.5 0 1 0 15 0 a7.5 7.5 0 1 0 -15 0zM733.88 190.39 a7.5 7.5 0 1 0 15 0 a7.5 7.5 0 1 0 -15 0zM668.93 152.89 a7.5 7.5 0 1 0 15 0 a7.5 7.5 0 1 0 -15 0zM668.93 77.89 a7.5 7.5 0 1 0 15 0 a7.5 7.5 0 1 0 -15 0zM993.7 40.39 a7.5 7.5 0 1 0 15 0 a7.5 7.5 0 1 0 -15 0zM1058.65 77.89 a7.5 7.5 0 1 0 15 0 a7.5 7.5 0 1 0 -15 0zM1058.65 152.89 a7.5 7.5 0 1 0 15 0 a7.5 7.5 0 1 0 -15 0zM993.7 190.39 a7.5 7.5 0 1 0 15 0 a7.5 7.5 0 1 0 -15 0zM928.74 152.89 a7.5 7.5 0 1 0 15 0 a7.5 7.5 0 1 0 -15 0zM928.74 77.89 a7.5 7.5 0 1 0 15 0 a7.5 7.5 0 1 0 -15 0zM993.7 490.39 a7.5 7.5 0 1 0 15 0 a7.5 7.5 0 1 0 -15 0zM1058.65 527.89 a7.5 7.5 0 1 0 15 0 a7.5 7.5 0 1 0 -15 0zM1058.65 602.89 a7.5 7.5 0 1 0 15 0 a7.5 7.5 0 1 0 -15 0zM993.7 640.39 a7.5 7.5 0 1 0 15 0 a7.5 7.5 0 1 0 -15 0zM928.74 602.89 a7.5 7.5 0 1 0 15 0 a7.5 7.5 0 1 0 -15 0zM928.74 527.89 a7.5 7.5 0 1 0 15 0 a7.5 7.5 0 1 0 -15 0zM1123.6 265.39 a7.5 7.5 0 1 0 15 0 a7.5 7.5 0 1 0 -15 0zM1188.56 302.89 a7.5 7.5 0 1 0 15 0 a7.5 7.5 0 1 0 -15 0zM1188.56 377.89 a7.5 7.5 0 1 0 15 0 a7.5 7.5 0 1 0 -15 0zM1123.6 415.39 a7.5 7.5 0 1 0 15 0 a7.5 7.5 0 1 0 -15 0zM1058.65 377.89 a7.5 7.5 0 1 0 15 0 a7.5 7.5 0 1 0 -15 0zM1058.65 302.89 a7.5 7.5 0 1 0 15 0 a7.5 7.5 0 1 0 -15 0zM1188.56 152.89 a7.5 7.5 0 1 0 15 0 a7.5 7.5 0 1 0 -15 0zM1253.51 190.39 a7.5 7.5 0 1 0 15 0 a7.5 7.5 0 1 0 -15 0zM1253.51 265.39 a7.5 7.5 0 1 0 15 0 a7.5 7.5 0 1 0 -15 0zM1123.6 190.39 a7.5 7.5 0 1 0 15 0 a7.5 7.5 0 1 0 -15 0zM1318.46 302.89 a7.5 7.5 0 1 0 15 0 a7.5 7.5 0 1 0 -15 0zM1318.46 377.89 a7.5 7.5 0 1 0 15 0 a7.5 7.5 0 1 0 -15 0zM1253.51 415.39 a7.5 7.5 0 1 0 15 0 a7.5 7.5 0 1 0 -15 0zM1513.33 265.39 a7.5 7.5 0 1 0 15 0 a7.5 7.5 0 1 0 -15 0zM1578.28 302.89 a7.5 7.5 0 1 0 15 0 a7.5 7.5 0 1 0 -15 0zM1578.28 377.89 a7.5 7.5 0 1 0 15 0 a7.5 7.5 0 1 0 -15 0zM1513.33 415.39 a7.5 7.5 0 1 0 15 0 a7.5 7.5 0 1 0 -15 0zM1448.37 377.89 a7.5 7.5 0 1 0 15 0 a7.5 7.5 0 1 0 -15 0zM1448.37 302.89 a7.5 7.5 0 1 0 15 0 a7.5 7.5 0 1 0 -15 0z" fill="rgba(0, 66, 37, 1)"></path><path d="M55.19 62.27L98.5 87.27L98.5 137.27L55.19 162.27L11.89 137.27L11.89 87.27zM11.89 437.27L55.19 462.27L55.19 512.27L11.89 537.27L-31.41 512.27L-31.41 462.27zM55.19 512.27L98.5 537.27L98.5 587.27L55.19 612.27L11.89 587.27L11.89 537.27zM98.5 -12.73L141.8 12.27L141.8 62.27L98.5 87.27L55.19 62.27L55.19 12.27zM98.5 137.27L141.8 162.27L141.8 212.27L98.5 237.27L55.19 212.27L55.19 162.27zM98.5 287.27L141.8 312.27L141.8 362.27L98.5 387.27L55.19 362.27L55.19 312.27zM98.5 437.27L141.8 462.27L141.8 512.27L98.5 537.27L55.19 512.27L55.19 462.27zM185.1 287.27L228.4 312.27L228.4 362.27L185.1 387.27L141.8 362.27L141.8 312.27zM271.7 287.27L315.01 312.27L315.01 362.27L271.7 387.27L228.4 362.27L228.4 312.27zM271.7 437.27L315.01 462.27L315.01 512.27L271.7 537.27L228.4 512.27L228.4 462.27zM315.01 512.27L358.31 537.27L358.31 587.27L315.01 612.27L271.7 587.27L271.7 537.27zM401.61 212.27L444.92 237.27L444.92 287.27L401.61 312.27L358.31 287.27L358.31 237.27zM358.31 287.27L401.61 312.27L401.61 362.27L358.31 387.27L315.01 362.27L315.01 312.27zM488.22 212.27L531.52 237.27L531.52 287.27L488.22 312.27L444.92 287.27L444.92 237.27zM488.22 362.27L531.52 387.27L531.52 437.27L488.22 462.27L444.92 437.27L444.92 387.27zM661.43 212.27L704.73 237.27L704.73 287.27L661.43 312.27L618.13 287.27L618.13 237.27zM618.13 287.27L661.43 312.27L661.43 362.27L618.13 387.27L574.82 362.27L574.82 312.27zM661.43 362.27L704.73 387.27L704.73 437.27L661.43 462.27L618.13 437.27L618.13 387.27zM834.64 62.27L877.94 87.27L877.94 137.27L834.64 162.27L791.34 137.27L791.34 87.27zM791.34 287.27L834.64 312.27L834.64 362.27L791.34 387.27L748.03 362.27L748.03 312.27zM877.94 437.27L921.24 462.27L921.24 512.27L877.94 537.27L834.64 512.27L834.64 462.27zM1007.85 212.27L1051.15 237.27L1051.15 287.27L1007.85 312.27L964.55 287.27L964.55 237.27zM1007.85 362.27L1051.15 387.27L1051.15 437.27L1007.85 462.27L964.55 437.27L964.55 387.27zM964.55 437.27L1007.85 462.27L1007.85 512.27L964.55 537.27L921.24 512.27L921.24 462.27zM1051.15 287.27L1094.45 312.27L1094.45 362.27L1051.15 387.27L1007.85 362.27L1007.85 312.27zM1181.06 62.27L1224.36 87.27L1224.36 137.27L1181.06 162.27L1137.76 137.27L1137.76 87.27zM1267.66 62.27L1310.97 87.27L1310.97 137.27L1267.66 162.27L1224.36 137.27L1224.36 87.27zM1224.36 137.27L1267.66 162.27L1267.66 212.27L1224.36 237.27L1181.06 212.27L1181.06 162.27zM1267.66 362.27L1310.97 387.27L1310.97 437.27L1267.66 462.27L1224.36 437.27L1224.36 387.27zM1267.66 512.27L1310.97 537.27L1310.97 587.27L1267.66 612.27L1224.36 587.27L1224.36 537.27zM1310.97 -12.73L1354.27 12.27L1354.27 62.27L1310.97 87.27L1267.66 62.27L1267.66 12.27zM1354.27 62.27L1397.57 87.27L1397.57 137.27L1354.27 162.27L1310.97 137.27L1310.97 87.27zM1440.87 62.27L1484.18 87.27L1484.18 137.27L1440.87 162.27L1397.57 137.27L1397.57 87.27zM1440.87 212.27L1484.18 237.27L1484.18 287.27L1440.87 312.27L1397.57 287.27L1397.57 237.27zM1440.87 362.27L1484.18 387.27L1484.18 437.27L1440.87 462.27L1397.57 437.27L1397.57 387.27z" stroke="rgba(255, 176, 0, 1)" stroke-width="2"></path><path d="M50.19 62.27 a5 5 0 1 0 10 0 a5 5 0 1 0 -10 0zM93.5 87.27 a5 5 0 1 0 10 0 a5 5 0 1 0 -10 0zM93.5 137.27 a5 5 0 1 0 10 0 a5 5 0 1 0 -10 0zM50.19 162.27 a5 5 0 1 0 10 0 a5 5 0 1 0 -10 0zM6.89 137.27 a5 5 0 1 0 10 0 a5 5 0 1 0 -10 0zM6.89 87.27 a5 5 0 1 0 10 0 a5 5 0 1 0 -10 0zM6.89 437.27 a5 5 0 1 0 10 0 a5 5 0 1 0 -10 0zM50.19 462.27 a5 5 0 1 0 10 0 a5 5 0 1 0 -10 0zM50.19 512.27 a5 5 0 1 0 10 0 a5 5 0 1 0 -10 0zM6.89 537.27 a5 5 0 1 0 10 0 a5 5 0 1 0 -10 0zM-36.41 512.27 a5 5 0 1 0 10 0 a5 5 0 1 0 -10 0zM-36.41 462.27 a5 5 0 1 0 10 0 a5 5 0 1 0 -10 0zM93.5 537.27 a5 5 0 1 0 10 0 a5 5 0 1 0 -10 0zM93.5 587.27 a5 5 0 1 0 10 0 a5 5 0 1 0 -10 0zM50.19 612.27 a5 5 0 1 0 10 0 a5 5 0 1 0 -10 0zM6.89 587.27 a5 5 0 1 0 10 0 a5 5 0 1 0 -10 0zM93.5 -12.73 a5 5 0 1 0 10 0 a5 5 0 1 0 -10 0zM136.8 12.27 a5 5 0 1 0 10 0 a5 5 0 1 0 -10 0zM136.8 62.27 a5 5 0 1 0 10 0 a5 5 0 1 0 -10 0zM50.19 12.27 a5 5 0 1 0 10 0 a5 5 0 1 0 -10 0zM136.8 162.27 a5 5 0 1 0 10 0 a5 5 0 1 0 -10 0zM136.8 212.27 a5 5 0 1 0 10 0 a5 5 0 1 0 -10 0zM93.5 237.27 a5 5 0 1 0 10 0 a5 5 0 1 0 -10 0zM50.19 212.27 a5 5 0 1 0 10 0 a5 5 0 1 0 -10 0zM93.5 287.27 a5 5 0 1 0 10 0 a5 5 0 1 0 -10 0zM136.8 312.27 a5 5 0 1 0 10 0 a5 5 0 1 0 -10 0zM136.8 362.27 a5 5 0 1 0 10 0 a5 5 0 1 0 -10 0zM93.5 387.27 a5 5 0 1 0 10 0 a5 5 0 1 0 -10 0zM50.19 362.27 a5 5 0 1 0 10 0 a5 5 0 1 0 -10 0zM50.19 312.27 a5 5 0 1 0 10 0 a5 5 0 1 0 -10 0zM93.5 437.27 a5 5 0 1 0 10 0 a5 5 0 1 0 -10 0zM136.8 462.27 a5 5 0 1 0 10 0 a5 5 0 1 0 -10 0zM136.8 512.27 a5 5 0 1 0 10 0 a5 5 0 1 0 -10 0zM180.1 287.27 a5 5 0 1 0 10 0 a5 5 0 1 0 -10 0zM223.4 312.27 a5 5 0 1 0 10 0 a5 5 0 1 0 -10 0zM223.4 362.27 a5 5 0 1 0 10 0 a5 5 0 1 0 -10 0zM180.1 387.27 a5 5 0 1 0 10 0 a5 5 0 1 0 -10 0zM266.7 287.27 a5 5 0 1 0 10 0 a5 5 0 1 0 -10 0zM310.01 312.27 a5 5 0 1 0 10 0 a5 5 0 1 0 -10 0zM310.01 362.27 a5 5 0 1 0 10 0 a5 5 0 1 0 -10 0zM266.7 387.27 a5 5 0 1 0 10 0 a5 5 0 1 0 -10 0zM266.7 437.27 a5 5 0 1 0 10 0 a5 5 0 1 0 -10 0zM310.01 462.27 a5 5 0 1 0 10 0 a5 5 0 1 0 -10 0zM310.01 512.27 a5 5 0 1 0 10 0 a5 5 0 1 0 -10 0zM266.7 537.27 a5 5 0 1 0 10 0 a5 5 0 1 0 -10 0zM223.4 512.27 a5 5 0 1 0 10 0 a5 5 0 1 0 -10 0zM223.4 462.27 a5 5 0 1 0 10 0 a5 5 0 1 0 -10 0zM353.31 537.27 a5 5 0 1 0 10 0 a5 5 0 1 0 -10 0zM353.31 587.27 a5 5 0 1 0 10 0 a5 5 0 1 0 -10 0zM310.01 612.27 a5 5 0 1 0 10 0 a5 5 0 1 0 -10 0zM266.7 587.27 a5 5 0 1 0 10 0 a5 5 0 1 0 -10 0zM396.61 212.27 a5 5 0 1 0 10 0 a5 5 0 1 0 -10 0zM439.92 237.27 a5 5 0 1 0 10 0 a5 5 0 1 0 -10 0zM439.92 287.27 a5 5 0 1 0 10 0 a5 5 0 1 0 -10 0zM396.61 312.27 a5 5 0 1 0 10 0 a5 5 0 1 0 -10 0zM353.31 287.27 a5 5 0 1 0 10 0 a5 5 0 1 0 -10 0zM353.31 237.27 a5 5 0 1 0 10 0 a5 5 0 1 0 -10 0zM396.61 362.27 a5 5 0 1 0 10 0 a5 5 0 1 0 -10 0zM353.31 387.27 a5 5 0 1 0 10 0 a5 5 0 1 0 -10 0zM483.22 212.27 a5 5 0 1 0 10 0 a5 5 0 1 0 -10 0zM526.52 237.27 a5 5 0 1 0 10 0 a5 5 0 1 0 -10 0zM526.52 287.27 a5 5 0 1 0 10 0 a5 5 0 1 0 -10 0zM483.22 312.27 a5 5 0 1 0 10 0 a5 5 0 1 0 -10 0zM483.22 362.27 a5 5 0 1 0 10 0 a5 5 0 1 0 -10 0zM526.52 387.27 a5 5 0 1 0 10 0 a5 5 0 1 0 -10 0zM526.52 437.27 a5 5 0 1 0 10 0 a5 5 0 1 0 -10 0zM483.22 462.27 a5 5 0 1 0 10 0 a5 5 0 1 0 -10 0zM439.92 437.27 a5 5 0 1 0 10 0 a5 5 0 1 0 -10 0zM439.92 387.27 a5 5 0 1 0 10 0 a5 5 0 1 0 -10 0zM656.43 212.27 a5 5 0 1 0 10 0 a5 5 0 1 0 -10 0zM699.73 237.27 a5 5 0 1 0 10 0 a5 5 0 1 0 -10 0zM699.73 287.27 a5 5 0 1 0 10 0 a5 5 0 1 0 -10 0zM656.43 312.27 a5 5 0 1 0 10 0 a5 5 0 1 0 -10 0zM613.13 287.27 a5 5 0 1 0 10 0 a5 5 0 1 0 -10 0zM613.13 237.27 a5 5 0 1 0 10 0 a5 5 0 1 0 -10 0zM656.43 362.27 a5 5 0 1 0 10 0 a5 5 0 1 0 -10 0zM613.13 387.27 a5 5 0 1 0 10 0 a5 5 0 1 0 -10 0zM569.82 362.27 a5 5 0 1 0 10 0 a5 5 0 1 0 -10 0zM569.82 312.27 a5 5 0 1 0 10 0 a5 5 0 1 0 -10 0zM699.73 387.27 a5 5 0 1 0 10 0 a5 5 0 1 0 -10 0zM699.73 437.27 a5 5 0 1 0 10 0 a5 5 0 1 0 -10 0zM656.43 462.27 a5 5 0 1 0 10 0 a5 5 0 1 0 -10 0zM613.13 437.27 a5 5 0 1 0 10 0 a5 5 0 1 0 -10 0zM829.64 62.27 a5 5 0 1 0 10 0 a5 5 0 1 0 -10 0zM872.94 87.27 a5 5 0 1 0 10 0 a5 5 0 1 0 -10 0zM872.94 137.27 a5 5 0 1 0 10 0 a5 5 0 1 0 -10 0zM829.64 162.27 a5 5 0 1 0 10 0 a5 5 0 1 0 -10 0zM786.34 137.27 a5 5 0 1 0 10 0 a5 5 0 1 0 -10 0zM786.34 87.27 a5 5 0 1 0 10 0 a5 5 0 1 0 -10 0zM786.34 287.27 a5 5 0 1 0 10 0 a5 5 0 1 0 -10 0zM829.64 312.27 a5 5 0 1 0 10 0 a5 5 0 1 0 -10 0zM829.64 362.27 a5 5 0 1 0 10 0 a5 5 0 1 0 -10 0zM786.34 387.27 a5 5 0 1 0 10 0 a5 5 0 1 0 -10 0zM743.03 362.27 a5 5 0 1 0 10 0 a5 5 0 1 0 -10 0zM743.03 312.27 a5 5 0 1 0 10 0 a5 5 0 1 0 -10 0zM872.94 437.27 a5 5 0 1 0 10 0 a5 5 0 1 0 -10 0zM916.24 462.27 a5 5 0 1 0 10 0 a5 5 0 1 0 -10 0zM916.24 512.27 a5 5 0 1 0 10 0 a5 5 0 1 0 -10 0zM872.94 537.27 a5 5 0 1 0 10 0 a5 5 0 1 0 -10 0zM829.64 512.27 a5 5 0 1 0 10 0 a5 5 0 1 0 -10 0zM829.64 462.27 a5 5 0 1 0 10 0 a5 5 0 1 0 -10 0zM1002.85 212.27 a5 5 0 1 0 10 0 a5 5 0 1 0 -10 0zM1046.15 237.27 a5 5 0 1 0 10 0 a5 5 0 1 0 -10 0zM1046.15 287.27 a5 5 0 1 0 10 0 a5 5 0 1 0 -10 0zM1002.85 312.27 a5 5 0 1 0 10 0 a5 5 0 1 0 -10 0zM959.55 287.27 a5 5 0 1 0 10 0 a5 5 0 1 0 -10 0zM959.55 237.27 a5 5 0 1 0 10 0 a5 5 0 1 0 -10 0zM1002.85 362.27 a5 5 0 1 0 10 0 a5 5 0 1 0 -10 0zM1046.15 387.27 a5 5 0 1 0 10 0 a5 5 0 1 0 -10 0zM1046.15 437.27 a5 5 0 1 0 10 0 a5 5 0 1 0 -10 0zM1002.85 462.27 a5 5 0 1 0 10 0 a5 5 0 1 0 -10 0zM959.55 437.27 a5 5 0 1 0 10 0 a5 5 0 1 0 -10 0zM959.55 387.27 a5 5 0 1 0 10 0 a5 5 0 1 0 -10 0zM1002.85 512.27 a5 5 0 1 0 10 0 a5 5 0 1 0 -10 0zM959.55 537.27 a5 5 0 1 0 10 0 a5 5 0 1 0 -10 0zM1089.45 312.27 a5 5 0 1 0 10 0 a5 5 0 1 0 -10 0zM1089.45 362.27 a5 5 0 1 0 10 0 a5 5 0 1 0 -10 0zM1176.06 62.27 a5 5 0 1 0 10 0 a5 5 0 1 0 -10 0zM1219.36 87.27 a5 5 0 1 0 10 0 a5 5 0 1 0 -10 0zM1219.36 137.27 a5 5 0 1 0 10 0 a5 5 0 1 0 -10 0zM1176.06 162.27 a5 5 0 1 0 10 0 a5 5 0 1 0 -10 0zM1132.76 137.27 a5 5 0 1 0 10 0 a5 5 0 1 0 -10 0zM1132.76 87.27 a5 5 0 1 0 10 0 a5 5 0 1 0 -10 0zM1262.66 62.27 a5 5 0 1 0 10 0 a5 5 0 1 0 -10 0zM1305.97 87.27 a5 5 0 1 0 10 0 a5 5 0 1 0 -10 0zM1305.97 137.27 a5 5 0 1 0 10 0 a5 5 0 1 0 -10 0zM1262.66 162.27 a5 5 0 1 0 10 0 a5 5 0 1 0 -10 0zM1262.66 212.27 a5 5 0 1 0 10 0 a5 5 0 1 0 -10 0zM1219.36 237.27 a5 5 0 1 0 10 0 a5 5 0 1 0 -10 0zM1176.06 212.27 a5 5 0 1 0 10 0 a5 5 0 1 0 -10 0zM1262.66 362.27 a5 5 0 1 0 10 0 a5 5 0 1 0 -10 0zM1305.97 387.27 a5 5 0 1 0 10 0 a5 5 0 1 0 -10 0zM1305.97 437.27 a5 5 0 1 0 10 0 a5 5 0 1 0 -10 0zM1262.66 462.27 a5 5 0 1 0 10 0 a5 5 0 1 0 -10 0zM1219.36 437.27 a5 5 0 1 0 10 0 a5 5 0 1 0 -10 0zM1219.36 387.27 a5 5 0 1 0 10 0 a5 5 0 1 0 -10 0zM1262.66 512.27 a5 5 0 1 0 10 0 a5 5 0 1 0 -10 0zM1305.97 537.27 a5 5 0 1 0 10 0 a5 5 0 1 0 -10 0zM1305.97 587.27 a5 5 0 1 0 10 0 a5 5 0 1 0 -10 0zM1262.66 612.27 a5 5 0 1 0 10 0 a5 5 0 1 0 -10 0zM1219.36 587.27 a5 5 0 1 0 10 0 a5 5 0 1 0 -10 0zM1219.36 537.27 a5 5 0 1 0 10 0 a5 5 0 1 0 -10 0zM1305.97 -12.73 a5 5 0 1 0 10 0 a5 5 0 1 0 -10 0zM1349.27 12.27 a5 5 0 1 0 10 0 a5 5 0 1 0 -10 0zM1349.27 62.27 a5 5 0 1 0 10 0 a5 5 0 1 0 -10 0zM1262.66 12.27 a5 5 0 1 0 10 0 a5 5 0 1 0 -10 0zM1392.57 87.27 a5 5 0 1 0 10 0 a5 5 0 1 0 -10 0zM1392.57 137.27 a5 5 0 1 0 10 0 a5 5 0 1 0 -10 0zM1349.27 162.27 a5 5 0 1 0 10 0 a5 5 0 1 0 -10 0zM1435.87 62.27 a5 5 0 1 0 10 0 a5 5 0 1 0 -10 0zM1479.18 87.27 a5 5 0 1 0 10 0 a5 5 0 1 0 -10 0zM1479.18 137.27 a5 5 0 1 0 10 0 a5 5 0 1 0 -10 0zM1435.87 162.27 a5 5 0 1 0 10 0 a5 5 0 1 0 -10 0zM1435.87 212.27 a5 5 0 1 0 10 0 a5 5 0 1 0 -10 0zM1479.18 237.27 a5 5 0 1 0 10 0 a5 5 0 1 0 -10 0zM1479.18 287.27 a5 5 0 1 0 10 0 a5 5 0 1 0 -10 0zM1435.87 312.27 a5 5 0 1 0 10 0 a5 5 0 1 0 -10 0zM1392.57 287.27 a5 5 0 1 0 10 0 a5 5 0 1 0 -10 0zM1392.57 237.27 a5 5 0 1 0 10 0 a5 5 0 1 0 -10 0zM1435.87 362.27 a5 5 0 1 0 10 0 a5 5 0 1 0 -10 0zM1479.18 387.27 a5 5 0 1 0 10 0 a5 5 0 1 0 -10 0zM1479.18 437.27 a5 5 0 1 0 10 0 a5 5 0 1 0 -10 0zM1435.87 462.27 a5 5 0 1 0 10 0 a5 5 0 1 0 -10 0zM1392.57 437.27 a5 5 0 1 0 10 0 a5 5 0 1 0 -10 0zM1392.57 387.27 a5 5 0 1 0 10 0 a5 5 0 1 0 -10 0z" fill="rgba(255, 176, 0, 1)"></path></g><defs><mask id="SvgjsMask1030"><rect width="1440" height="560" fill="#ffffff"></rect></mask></defs></svg>